<svg width="1200" height="760" viewBox="0 0 1200 760" fill="none" xmlns="http://www.w3.org/2000/svg">
  <rect width="1200" height="760" fill="#05070B"/>
  <rect x="64" y="64" width="1072" height="632" rx="18" fill="#0B0F17" stroke="#2A2F3A"/>
  <rect x="112" y="112" width="976" height="72" rx="10" fill="#111722" stroke="#2B3342"/>
  <circle cx="146" cy="148" r="10" fill="#F5F5F5"/>
  <circle cx="178" cy="148" r="10" fill="#9CA3AF"/>
  <circle cx="210" cy="148" r="10" fill="#2563EB"/>
  <rect x="820" y="137" width="220" height="22" rx="11" fill="#E5E7EB"/>
  <rect x="112" y="232" width="348" height="360" rx="16" fill="#090D14" stroke="#374151"/>
  <rect x="508" y="232" width="264" height="360" rx="16" fill="#090D14" stroke="#374151"/>
  <rect x="820" y="232" width="268" height="360" rx="16" fill="#090D14" stroke="#374151"/>
  <text x="112" y="665" fill="#F9FAFB" font-family="Arial, Helvetica, sans-serif" font-size="34" font-weight="700">Decentralized OTC Platform</text>
  <text x="112" y="705" fill="#A7B0BF" font-family="Arial, Helvetica, sans-serif" font-size="20">Proprietary execution, settlement, and counterparty workflow reference</text>
  <text x="144" y="286" fill="#F9FAFB" font-family="Arial, Helvetica, sans-serif" font-size="22" font-weight="700">Deal Console</text>
  <text x="540" y="286" fill="#F9FAFB" font-family="Arial, Helvetica, sans-serif" font-size="22" font-weight="700">Escrow State</text>
  <text x="852" y="286" fill="#F9FAFB" font-family="Arial, Helvetica, sans-serif" font-size="22" font-weight="700">Compliance Queue</text>
  <rect x="144" y="324" width="276" height="18" rx="9" fill="#E5E7EB"/>
  <rect x="144" y="368" width="228" height="18" rx="9" fill="#4B5563"/>
  <rect x="144" y="412" width="248" height="18" rx="9" fill="#4B5563"/>
  <rect x="144" y="488" width="118" height="44" rx="22" fill="#2563EB"/>
  <rect x="286" y="488" width="134" height="44" rx="22" fill="#111827" stroke="#4B5563"/>
  <path d="M640 335L702 371V443L640 479L578 443V371L640 335Z" stroke="#E5E7EB" stroke-width="8"/>
  <path d="M640 371V443M578 371L640 407L702 371" stroke="#2563EB" stroke-width="6"/>
  <rect x="852" y="328" width="196" height="52" rx="10" fill="#111827" stroke="#374151"/>
  <rect x="852" y="408" width="196" height="52" rx="10" fill="#111827" stroke="#374151"/>
  <rect x="852" y="488" width="196" height="52" rx="10" fill="#111827" stroke="#374151"/>
  <rect x="876" y="349" width="112" height="10" rx="5" fill="#E5E7EB"/>
  <rect x="876" y="429" width="132" height="10" rx="5" fill="#9CA3AF"/>
  <rect x="876" y="509" width="98" height="10" rx="5" fill="#9CA3AF"/>
</svg>
